<svg width="488" height="110" viewBox="0 0 488 110" fill="none" xmlns="http://www.w3.org/2000/svg">
<g clip-path="url(#clip0_1_31)">
<path d="M189.861 48.564V80.464H177.83V73.837C174.773 78.527 168.86 81.174 160.704 81.174C148.268 81.174 140.421 74.346 140.421 64.867C140.421 55.388 146.539 48.66 163.051 48.66H177.116V47.846C177.116 40.404 172.631 36.024 163.561 36.024C157.447 36.024 151.125 38.062 147.049 41.424L142.054 32.149C147.863 27.664 156.323 25.421 165.089 25.421C180.789 25.421 189.857 32.863 189.857 48.56L189.861 48.564ZM177.116 63.447V57.129H163.961C155.296 57.129 152.953 60.39 152.953 64.366C152.953 68.951 156.824 71.908 163.353 71.908C169.882 71.908 174.975 69.056 177.113 63.447H177.116Z" fill="#EAF0F6"/>
<path d="M199.909 53.254C199.909 36.947 212.141 25.429 229.367 25.429C239.967 25.429 248.426 29.814 252.607 38.07L242.823 43.779C241.433 41.4349 239.446 39.5017 237.064 38.1767C234.683 36.8516 231.993 36.1823 229.268 36.237C219.889 36.237 212.756 42.76 212.756 53.258C212.756 63.756 219.893 70.279 229.268 70.279C231.993 70.3336 234.683 69.6643 237.064 68.3392C239.446 67.0142 241.433 65.081 242.823 62.737L252.607 68.446C248.427 76.602 239.966 81.187 229.367 81.187C212.141 81.187 199.909 69.565 199.909 53.258V53.254Z" fill="#EAF0F6"/>
<path d="M297.732 77.513C294.675 79.96 290.086 81.184 285.5 81.184C273.573 81.184 266.746 74.866 266.746 62.839V36.642H257.776V26.448H266.746V14.012H279.487V26.448H294.061V36.642H279.487V62.533C279.487 67.833 282.139 70.689 287.029 70.689C289.591 70.7611 292.103 69.9713 294.162 68.446L297.728 77.516L297.732 77.513Z" fill="#EAF0F6"/>
<path d="M355.595 57.3299H312.887C314.415 65.2809 321.043 70.3759 330.522 70.3759C336.636 70.3759 341.43 68.4379 345.301 64.4629L352.129 72.3099C347.235 78.1189 339.593 81.1799 330.213 81.1799C311.968 81.1799 300.146 69.4579 300.146 53.2509C300.146 37.0439 312.073 25.4249 328.28 25.4249C344.487 25.4249 355.8 36.5329 355.8 53.5589C355.8 54.5779 355.7 56.1059 355.6 57.3299H355.595ZM312.787 48.8689H343.673C342.654 41.0219 336.641 35.6179 328.28 35.6179C319.919 35.6179 314.011 40.9179 312.787 48.8689Z" fill="#EAF0F6"/>
<path d="M398.019 25.429V37.56C397.045 37.3689 396.055 37.2684 395.062 37.26C385.378 37.26 379.262 42.969 379.262 54.077V80.477H366.524V26.039H378.651V33.99C382.322 28.281 388.945 25.429 398.019 25.429Z" fill="#EAF0F6"/>
<path d="M404.801 9.42597C404.801 5.14597 408.267 1.77997 412.957 1.77997C417.647 1.77997 421.113 4.94097 421.113 9.11697C421.132 10.1837 420.932 11.2429 420.526 12.2296C420.12 13.2162 419.516 14.1093 418.752 14.8541C417.988 15.5988 417.08 16.1794 416.084 16.5601C415.087 16.9409 414.023 17.1137 412.957 17.068C408.163 17.068 404.801 13.706 404.801 9.42197V9.42597ZM406.534 26.042H419.275V80.472H406.534V26.039V26.042Z" fill="#EAF0F6"/>
<path d="M429.678 53.254C429.678 36.947 441.91 25.429 458.626 25.429C475.342 25.429 487.674 36.946 487.674 53.254C487.674 69.562 475.547 81.183 458.626 81.183C441.705 81.183 429.678 69.561 429.678 53.254ZM474.833 53.254C474.833 42.854 467.901 36.233 458.626 36.233C449.351 36.233 442.526 42.86 442.526 53.254C442.526 63.648 449.458 70.275 458.626 70.275C467.794 70.275 474.833 63.648 474.833 53.254Z" fill="#EAF0F6"/>
<path d="M107.619 81.187H68.761C68.2306 81.187 67.7219 80.9762 67.3468 80.6012C66.9717 80.2261 66.761 79.7174 66.761 79.187V68.3339C66.761 67.7924 66.9762 67.273 67.3591 66.89C67.7421 66.5071 68.2615 66.2919 68.803 66.2919H81.385C81.6465 66.2921 81.9034 66.2234 82.1299 66.0927C82.3564 65.962 82.5445 65.774 82.6753 65.5475C82.806 65.3211 82.8748 65.0642 82.8748 64.8027C82.8748 64.5412 82.8059 64.2844 82.675 64.0579L76.662 53.6419L62.614 29.3089C62.4827 29.0831 62.2943 28.8958 62.0679 28.7655C61.8414 28.6353 61.5848 28.5667 61.3235 28.5667C61.0623 28.5667 60.8056 28.6353 60.5792 28.7655C60.3527 28.8958 60.1644 29.0831 60.033 29.3089L45.978 53.6419L39.967 64.0569C39.8365 64.2834 39.7679 64.5402 39.768 64.8016C39.7681 65.0629 39.837 65.3197 39.9677 65.546C40.0984 65.7724 40.2863 65.9604 40.5126 66.0911C40.7389 66.2219 40.9957 66.2908 41.257 66.2909H53.552C54.0936 66.2909 54.613 66.5061 54.9959 66.889C55.3789 67.272 55.594 67.7914 55.594 68.3329V79.187C55.594 79.7174 55.3833 80.2261 55.0082 80.6012C54.6332 80.9762 54.1245 81.187 53.594 81.187H15.041C14.8955 81.1867 14.7527 81.1482 14.6268 81.0754C14.5008 81.0025 14.3963 80.8979 14.3235 80.7719C14.2508 80.6459 14.2125 80.5029 14.2124 80.3575C14.2123 80.212 14.2505 80.069 14.323 79.9429L28.997 54.5259L59.544 1.61295C59.7252 1.30052 59.9852 1.04117 60.2981 0.860878C60.6111 0.68059 60.9659 0.585693 61.327 0.585693C61.6882 0.585693 62.043 0.68059 62.3559 0.860878C62.6688 1.04117 62.9289 1.30052 63.11 1.61295L93.658 54.5259L108.333 79.9409C108.406 80.0667 108.445 80.2096 108.446 80.3552C108.446 80.5007 108.408 80.6438 108.336 80.7701C108.263 80.8964 108.159 81.0014 108.033 81.0746C107.907 81.1478 107.765 81.1865 107.619 81.187Z" fill="#EAF0F6"/>
<path d="M8.87702 90.692H53.597C54.1275 90.692 54.6362 90.9027 55.0112 91.2778C55.3863 91.6528 55.597 92.1615 55.597 92.692V106.878C55.597 107.408 55.3863 107.917 55.0112 108.292C54.6362 108.667 54.1275 108.878 53.597 108.878H2.87202C2.36875 108.878 1.87431 108.746 1.43845 108.494C1.00258 108.243 0.640684 107.881 0.389173 107.445C0.137662 107.009 0.00541375 106.514 0.0057379 106.011C0.00606205 105.508 0.138947 105.014 0.39102 104.578L8.16702 91.105C8.23956 90.9797 8.34365 90.8757 8.46893 90.8032C8.59421 90.7308 8.73629 90.6924 8.88102 90.692H8.87702Z" fill="#57C7FF"/>
<path d="M122.264 108.875H68.764C68.2336 108.875 67.7249 108.664 67.3498 108.289C66.9748 107.914 66.764 107.405 66.764 106.875V92.6879C66.764 92.1575 66.9748 91.6488 67.3498 91.2737C67.7249 90.8987 68.2336 90.6879 68.764 90.6879H116.264C116.409 90.6869 116.552 90.7247 116.677 90.7973C116.803 90.8699 116.907 90.9747 116.978 91.1009L124.754 104.573C125.006 105.009 125.138 105.503 125.139 106.006C125.139 106.509 125.006 107.003 124.755 107.439C124.504 107.875 124.142 108.237 123.706 108.489C123.27 108.74 122.776 108.873 122.273 108.873L122.264 108.875Z" fill="#68ECB3"/>
</g>
<defs>
<clipPath id="clip0_1_31">
<rect width="488" height="109" fill="white" transform="translate(0 0.292969)"/>
</clipPath>
</defs>
</svg>
